<svg xmlns="http://www.w3.org/2000/svg" width="430" height="430" fill="none" viewBox="0 0 430 430"><path fill="#4bb3fd" d="M336.86 169.37a117.699 117.699 0 0 0-212.75-8.07 36.6 36.6 0 0 0-32.846 5.186A36.59 36.59 0 0 0 76.18 196.12c.008 2.654.3 5.299.87 7.89a68.52 68.52 0 0 0 31.86 129.18h197a84.84 84.84 0 0 0 31-163.82z"/><path fill="#4bb3fd" d="M139.66 264.65a68.49 68.49 0 0 1 36.67-60.64 37.2 37.2 0 0 1-.87-7.89 36.59 36.59 0 0 1 47.93-34.82 118.16 118.16 0 0 1 54.79-52.49A117.69 117.69 0 0 0 124 161.3a36.6 36.6 0 0 0-32.825 5.202A36.59 36.59 0 0 0 76.1 196.12c.008 2.654.3 5.299.87 7.89a68.52 68.52 0 0 0 31.86 129.18h99.36a68.55 68.55 0 0 1-48.459-20.078 68.54 68.54 0 0 1-20.071-48.462" opacity=".5" style="mix-blend-mode:multiply"/></svg>